<svg width="118" height="42" viewBox="0 0 118 42" fill="none" xmlns="http://www.w3.org/2000/svg">
<path d="M18.0532 17.126C17.1292 17.126 16.3012 16.976 15.5692 16.676C14.8372 16.376 14.2492 15.932 13.8052 15.344C13.3732 14.756 13.1452 14.048 13.1212 13.22H16.3972C16.4452 13.688 16.6072 14.048 16.8832 14.3C17.1592 14.54 17.5192 14.66 17.9632 14.66C18.4192 14.66 18.7792 14.558 19.0432 14.354C19.3072 14.138 19.4392 13.844 19.4392 13.472C19.4392 13.16 19.3312 12.902 19.1152 12.698C18.9112 12.494 18.6532 12.326 18.3412 12.194C18.0412 12.062 17.6092 11.912 17.0452 11.744C16.2292 11.492 15.5632 11.24 15.0472 10.988C14.5312 10.736 14.0872 10.364 13.7152 9.872C13.3432 9.38 13.1572 8.738 13.1572 7.946C13.1572 6.77 13.5832 5.852 14.4352 5.192C15.2872 4.52 16.3972 4.184 17.7652 4.184C19.1572 4.184 20.2792 4.52 21.1312 5.192C21.9832 5.852 22.4392 6.776 22.4992 7.964H19.1692C19.1452 7.556 18.9952 7.238 18.7192 7.01C18.4432 6.77 18.0892 6.65 17.6572 6.65C17.2852 6.65 16.9852 6.752 16.7572 6.956C16.5292 7.148 16.4152 7.43 16.4152 7.802C16.4152 8.21 16.6072 8.528 16.9912 8.756C17.3752 8.984 17.9752 9.23 18.7912 9.494C19.6072 9.77 20.2672 10.034 20.7712 10.286C21.2872 10.538 21.7312 10.904 22.1032 11.384C22.4752 11.864 22.6612 12.482 22.6612 13.238C22.6612 13.958 22.4752 14.612 22.1032 15.2C21.7432 15.788 21.2152 16.256 20.5192 16.604C19.8232 16.952 19.0012 17.126 18.0532 17.126ZM34.0235 11.816C34.0235 12.104 34.0055 12.404 33.9695 12.716H27.0035C27.0515 13.34 27.2495 13.82 27.5975 14.156C27.9575 14.48 28.3955 14.642 28.9115 14.642C29.6795 14.642 30.2135 14.318 30.5135 13.67H33.7895C33.6215 14.33 33.3155 14.924 32.8715 15.452C32.4395 15.98 31.8935 16.394 31.2335 16.694C30.5735 16.994 29.8355 17.144 29.0195 17.144C28.0355 17.144 27.1595 16.934 26.3915 16.514C25.6235 16.094 25.0235 15.494 24.5915 14.714C24.1595 13.934 23.9435 13.022 23.9435 11.978C23.9435 10.934 24.1535 10.022 24.5735 9.242C25.0055 8.462 25.6055 7.862 26.3735 7.442C27.1415 7.022 28.0235 6.812 29.0195 6.812C29.9915 6.812 30.8555 7.016 31.6115 7.424C32.3675 7.832 32.9555 8.414 33.3755 9.17C33.8075 9.926 34.0235 10.808 34.0235 11.816ZM30.8735 11.006C30.8735 10.478 30.6935 10.058 30.3335 9.746C29.9735 9.434 29.5235 9.278 28.9835 9.278C28.4675 9.278 28.0295 9.428 27.6695 9.728C27.3215 10.028 27.1055 10.454 27.0215 11.006H30.8735ZM41.7673 6.848C42.9433 6.848 43.8793 7.232 44.5753 8C45.2833 8.756 45.6373 9.8 45.6373 11.132V17H42.5773V11.546C42.5773 10.874 42.4033 10.352 42.0553 9.98C41.7073 9.608 41.2393 9.422 40.6513 9.422C40.0633 9.422 39.5953 9.608 39.2473 9.98C38.8993 10.352 38.7253 10.874 38.7253 11.546V17H35.6473V6.956H38.7253V8.288C39.0373 7.844 39.4573 7.496 39.9853 7.244C40.5133 6.98 41.1073 6.848 41.7673 6.848ZM53.3742 14.39V17H51.8082C50.6922 17 49.8222 16.73 49.1982 16.19C48.5742 15.638 48.2622 14.744 48.2622 13.508V9.512H47.0382V6.956H48.2622V4.508H51.3402V6.956H53.3562V9.512H51.3402V13.544C51.3402 13.844 51.4122 14.06 51.5562 14.192C51.7002 14.324 51.9402 14.39 52.2762 14.39H53.3742ZM54.4767 11.96C54.4767 10.928 54.6687 10.022 55.0527 9.242C55.4487 8.462 55.9827 7.862 56.6547 7.442C57.3267 7.022 58.0767 6.812 58.9047 6.812C59.6127 6.812 60.2307 6.956 60.7587 7.244C61.2987 7.532 61.7127 7.91 62.0007 8.378V6.956H65.0787V17H62.0007V15.578C61.7007 16.046 61.2807 16.424 60.7407 16.712C60.2127 17 59.5947 17.144 58.8867 17.144C58.0707 17.144 57.3267 16.934 56.6547 16.514C55.9827 16.082 55.4487 15.476 55.0527 14.696C54.6687 13.904 54.4767 12.992 54.4767 11.96ZM62.0007 11.978C62.0007 11.21 61.7847 10.604 61.3527 10.16C60.9327 9.716 60.4167 9.494 59.8047 9.494C59.1927 9.494 58.6707 9.716 58.2387 10.16C57.8187 10.592 57.6087 11.192 57.6087 11.96C57.6087 12.728 57.8187 13.34 58.2387 13.796C58.6707 14.24 59.1927 14.462 59.8047 14.462C60.4167 14.462 60.9327 14.24 61.3527 13.796C61.7847 13.352 62.0007 12.746 62.0007 11.978ZM77.5655 6.956L71.2655 21.77H67.9535L70.2575 16.658L66.1715 6.956H69.6095L71.9315 13.238L74.2355 6.956H77.5655ZM84.8525 6.848C86.0045 6.848 86.9285 7.232 87.6245 8C88.3205 8.756 88.6685 9.8 88.6685 11.132V17H85.6085V11.546C85.6085 10.874 85.4345 10.352 85.0865 9.98C84.7385 9.608 84.2705 9.422 83.6825 9.422C83.0945 9.422 82.6265 9.608 82.2785 9.98C81.9305 10.352 81.7565 10.874 81.7565 11.546V17H78.6785V3.68H81.7565V8.306C82.0685 7.862 82.4945 7.508 83.0345 7.244C83.5745 6.98 84.1805 6.848 84.8525 6.848ZM100.725 6.956V17H97.6474V15.632C97.3354 16.076 96.9094 16.436 96.3694 16.712C95.8414 16.976 95.2534 17.108 94.6054 17.108C93.8374 17.108 93.1594 16.94 92.5714 16.604C91.9834 16.256 91.5274 15.758 91.2034 15.11C90.8794 14.462 90.7174 13.7 90.7174 12.824V6.956H93.7774V12.41C93.7774 13.082 93.9514 13.604 94.2994 13.976C94.6474 14.348 95.1154 14.534 95.7034 14.534C96.3034 14.534 96.7774 14.348 97.1254 13.976C97.4734 13.604 97.6474 13.082 97.6474 12.41V6.956H100.725ZM28.1361 30.52C28.8681 30.676 29.4561 31.042 29.9001 31.618C30.3441 32.182 30.5661 32.83 30.5661 33.562C30.5661 34.618 30.1941 35.458 29.4501 36.082C28.7181 36.694 27.6921 37 26.3721 37H20.4861V24.364H26.1741C27.4581 24.364 28.4601 24.658 29.1801 25.246C29.9121 25.834 30.2781 26.632 30.2781 27.64C30.2781 28.384 30.0801 29.002 29.6841 29.494C29.3001 29.986 28.7841 30.328 28.1361 30.52ZM23.5641 29.476H25.5801C26.0841 29.476 26.4681 29.368 26.7321 29.152C27.0081 28.924 27.1461 28.594 27.1461 28.162C27.1461 27.73 27.0081 27.4 26.7321 27.172C26.4681 26.944 26.0841 26.83 25.5801 26.83H23.5641V29.476ZM25.8321 34.516C26.3481 34.516 26.7441 34.402 27.0201 34.174C27.3081 33.934 27.4521 33.592 27.4521 33.148C27.4521 32.704 27.3021 32.356 27.0021 32.104C26.7141 31.852 26.3121 31.726 25.7961 31.726H23.5641V34.516H25.8321ZM41.8194 31.816C41.8194 32.104 41.8014 32.404 41.7654 32.716H34.7994C34.8474 33.34 35.0454 33.82 35.3934 34.156C35.7534 34.48 36.1914 34.642 36.7074 34.642C37.4754 34.642 38.0094 34.318 38.3094 33.67H41.5854C41.4174 34.33 41.1114 34.924 40.6674 35.452C40.2354 35.98 39.6894 36.394 39.0294 36.694C38.3694 36.994 37.6314 37.144 36.8154 37.144C35.8314 37.144 34.9554 36.934 34.1874 36.514C33.4194 36.094 32.8194 35.494 32.3874 34.714C31.9554 33.934 31.7394 33.022 31.7394 31.978C31.7394 30.934 31.9494 30.022 32.3694 29.242C32.8014 28.462 33.4014 27.862 34.1694 27.442C34.9374 27.022 35.8194 26.812 36.8154 26.812C37.7874 26.812 38.6514 27.016 39.4074 27.424C40.1634 27.832 40.7514 28.414 41.1714 29.17C41.6034 29.926 41.8194 30.808 41.8194 31.816ZM38.6694 31.006C38.6694 30.478 38.4894 30.058 38.1294 29.746C37.7694 29.434 37.3194 29.278 36.7794 29.278C36.2634 29.278 35.8254 29.428 35.4654 29.728C35.1174 30.028 34.9014 30.454 34.8174 31.006H38.6694ZM46.5211 28.63C46.8811 28.078 47.3311 27.646 47.8711 27.334C48.4111 27.01 49.0111 26.848 49.6711 26.848V30.106H48.8251C48.0571 30.106 47.4811 30.274 47.0971 30.61C46.7131 30.934 46.5211 31.51 46.5211 32.338V37H43.4431V26.956H46.5211V28.63ZM57.3164 26.848C58.4684 26.848 59.3924 27.232 60.0884 28C60.7844 28.756 61.1324 29.8 61.1324 31.132V37H58.0724V31.546C58.0724 30.874 57.8984 30.352 57.5504 29.98C57.2024 29.608 56.7344 29.422 56.1464 29.422C55.5584 29.422 55.0904 29.608 54.7424 29.98C54.3944 30.352 54.2204 30.874 54.2204 31.546V37H51.1424V23.68H54.2204V28.306C54.5324 27.862 54.9584 27.508 55.4984 27.244C56.0384 26.98 56.6444 26.848 57.3164 26.848ZM62.6593 31.96C62.6593 30.928 62.8513 30.022 63.2353 29.242C63.6313 28.462 64.1653 27.862 64.8373 27.442C65.5093 27.022 66.2593 26.812 67.0873 26.812C67.7953 26.812 68.4133 26.956 68.9413 27.244C69.4813 27.532 69.8953 27.91 70.1833 28.378V26.956H73.2613V37H70.1833V35.578C69.8833 36.046 69.4633 36.424 68.9233 36.712C68.3953 37 67.7773 37.144 67.0693 37.144C66.2533 37.144 65.5093 36.934 64.8373 36.514C64.1653 36.082 63.6313 35.476 63.2353 34.696C62.8513 33.904 62.6593 32.992 62.6593 31.96ZM70.1833 31.978C70.1833 31.21 69.9673 30.604 69.5353 30.16C69.1153 29.716 68.5993 29.494 67.9873 29.494C67.3753 29.494 66.8533 29.716 66.4213 30.16C66.0013 30.592 65.7913 31.192 65.7913 31.96C65.7913 32.728 66.0013 33.34 66.4213 33.796C66.8533 34.24 67.3753 34.462 67.9873 34.462C68.5993 34.462 69.1153 34.24 69.5353 33.796C69.9673 33.352 70.1833 32.746 70.1833 31.978ZM81.6081 26.848C82.7841 26.848 83.7201 27.232 84.4161 28C85.1241 28.756 85.4781 29.8 85.4781 31.132V37H82.4181V31.546C82.4181 30.874 82.2441 30.352 81.8961 29.98C81.5481 29.608 81.0801 29.422 80.4921 29.422C79.9041 29.422 79.4361 29.608 79.0881 29.98C78.7401 30.352 78.5661 30.874 78.5661 31.546V37H75.4881V26.956H78.5661V28.288C78.8781 27.844 79.2981 27.496 79.8261 27.244C80.3541 26.98 80.9481 26.848 81.6081 26.848ZM97.535 26.956V37H94.457V35.632C94.145 36.076 93.719 36.436 93.179 36.712C92.651 36.976 92.063 37.108 91.415 37.108C90.647 37.108 89.969 36.94 89.381 36.604C88.793 36.256 88.337 35.758 88.013 35.11C87.689 34.462 87.527 33.7 87.527 32.824V26.956H90.587V32.41C90.587 33.082 90.761 33.604 91.109 33.976C91.457 34.348 91.925 34.534 92.513 34.534C93.113 34.534 93.587 34.348 93.935 33.976C94.283 33.604 94.457 33.082 94.457 32.41V26.956H97.535Z" fill="#6070FF"/>
</svg>
